<svg width="116" height="124" viewBox="0 0 116 124" fill="none" xmlns="http://www.w3.org/2000/svg">
<circle cx="2" cy="2" r="2" fill="black"/>
<circle cx="2" cy="22" r="2" fill="black"/>
<circle cx="2" cy="42" r="2" fill="black"/>
<circle cx="2" cy="62" r="2" fill="black"/>
<circle cx="2" cy="82" r="2" fill="black"/>
<circle cx="2" cy="102" r="2" fill="black"/>
<circle cx="2" cy="122" r="2" fill="black"/>
<circle cx="30" cy="2" r="2" fill="black"/>
<circle cx="30" cy="22" r="2" fill="black"/>
<circle cx="30" cy="42" r="2" fill="black"/>
<circle cx="30" cy="62" r="2" fill="black"/>
<circle cx="30" cy="82" r="2" fill="black"/>
<circle cx="30" cy="102" r="2" fill="black"/>
<circle cx="30" cy="122" r="2" fill="black"/>
<circle cx="58" cy="2" r="2" fill="black"/>
<circle cx="58" cy="22" r="2" fill="black"/>
<circle cx="58" cy="42" r="2" fill="black"/>
<circle cx="58" cy="62" r="2" fill="black"/>
<circle cx="58" cy="82" r="2" fill="black"/>
<circle cx="58" cy="102" r="2" fill="black"/>
<circle cx="58" cy="122" r="2" fill="black"/>
<circle cx="86" cy="2" r="2" fill="black"/>
<circle cx="86" cy="22" r="2" fill="black"/>
<circle cx="86" cy="42" r="2" fill="black"/>
<circle cx="86" cy="62" r="2" fill="black"/>
<circle cx="86" cy="82" r="2" fill="black"/>
<circle cx="86" cy="102" r="2" fill="black"/>
<circle cx="86" cy="122" r="2" fill="black"/>
<circle cx="114" cy="2" r="2" fill="black"/>
<circle cx="114" cy="22" r="2" fill="black"/>
<circle cx="114" cy="42" r="2" fill="black"/>
<circle cx="114" cy="62" r="2" fill="black"/>
<circle cx="114" cy="82" r="2" fill="black"/>
<circle cx="114" cy="102" r="2" fill="black"/>
<circle cx="114" cy="122" r="2" fill="black"/>
</svg>
