<svg width="50" height="50" viewBox="0 0 56 56" xmlns="http://www.w3.org/2000/svg">
<path d="M7 43.1667V11.6667C7 9.81017 7.7375 8.02969 9.05025 6.71694C10.363 5.40419 12.1435 4.66669 14 4.66669H46.6667C47.2855 4.66669 47.879 4.91252 48.3166 5.3501C48.7542 5.78769 49 6.38118 49 7.00002V49C49 49.6189 48.7542 50.2124 48.3166 50.6499C47.879 51.0875 47.2855 51.3334 46.6667 51.3334H15.1667C13.0007 51.3334 10.9235 50.4729 9.39196 48.9414C7.86041 47.4098 7 45.3326 7 43.1667V43.1667ZM44.3333 46.6667V39.6667H15.1667C14.2384 39.6667 13.3482 40.0354 12.6918 40.6918C12.0354 41.3482 11.6667 42.2384 11.6667 43.1667C11.6667 44.0949 12.0354 44.9852 12.6918 45.6416C13.3482 46.2979 14.2384 46.6667 15.1667 46.6667H44.3333ZM11.6667 35.7864C12.7603 35.267 13.956 34.9984 15.1667 35H44.3333V9.33335H14C13.3812 9.33335 12.7877 9.57919 12.3501 10.0168C11.9125 10.4544 11.6667 11.0478 11.6667 11.6667V35.7864Z" fill="#FFA500"/>
</svg>
