<svg width="56" height="56" viewBox="0 0 56 56" xmlns="http://www.w3.org/2000/svg">
<path d="M37.3332 30.3333V11.6667H13.9998V30.3333C13.9998 31.571 14.4915 32.758 15.3667 33.6332C16.2418 34.5083 17.4288 35 18.6665 35H32.6665C33.9042 35 35.0912 34.5083 35.9663 33.6332C36.8415 32.758 37.3332 31.571 37.3332 30.3333ZM11.6665 7H46.6665C47.9042 7 49.0912 7.49167 49.9663 8.36683C50.8415 9.242 51.3332 10.429 51.3332 11.6667V18.6667C51.3332 19.9043 50.8415 21.0913 49.9663 21.9665C49.0912 22.8417 47.9042 23.3333 46.6665 23.3333H41.9998V30.3333C41.9998 32.8087 41.0165 35.1827 39.2662 36.933C37.5158 38.6833 35.1419 39.6667 32.6665 39.6667H18.6665C16.1911 39.6667 13.8172 38.6833 12.0668 36.933C10.3165 35.1827 9.33317 32.8087 9.33317 30.3333V9.33333C9.33317 8.71449 9.579 8.121 10.0166 7.68342C10.4542 7.24583 11.0477 7 11.6665 7ZM41.9998 11.6667V18.6667H46.6665V11.6667H41.9998ZM4.6665 44.3333H46.6665V49H4.6665V44.3333Z" fill="#FFA500"/>
</svg>
