<svg width="56" height="56" viewBox="0 0 56 56" xmlns="http://www.w3.org/2000/svg">
<path d="M9.33325 51.3333C9.33325 46.3826 11.2999 41.6347 14.8006 38.134C18.3013 34.6333 23.0492 32.6666 27.9999 32.6666C32.9506 32.6666 37.6986 34.6333 41.1992 38.134C44.6999 41.6347 46.6666 46.3826 46.6666 51.3333H41.9999C41.9999 47.6203 40.5249 44.0593 37.8994 41.4338C35.2739 38.8083 31.713 37.3333 27.9999 37.3333C24.2869 37.3333 20.7259 38.8083 18.1004 41.4338C15.4749 44.0593 13.9999 47.6203 13.9999 51.3333H9.33325ZM27.9999 30.3333C20.2649 30.3333 13.9999 24.0683 13.9999 16.3333C13.9999 8.59831 20.2649 2.33331 27.9999 2.33331C35.7349 2.33331 41.9999 8.59831 41.9999 16.3333C41.9999 24.0683 35.7349 30.3333 27.9999 30.3333ZM27.9999 25.6666C33.1566 25.6666 37.3333 21.49 37.3333 16.3333C37.3333 11.1766 33.1566 6.99998 27.9999 6.99998C22.8433 6.99998 18.6666 11.1766 18.6666 16.3333C18.6666 21.49 22.8433 25.6666 27.9999 25.6666Z" fill="#FFA500"/>
</svg>
